{
    "asset" : {
        "generator" : "Khronos glTF Blender I/O v3.4.50",
        "version" : "2.0"
    },
    "scene" : 0,
    "scenes" : [
        {
            "name" : "Scene",
            "nodes" : [
                4
            ]
        }
    ],
    "nodes" : [
        {
            "mesh" : 0,
            "name" : "christmas present_Present_0"
        },
        {
            "children" : [
                0
            ],
            "name" : "christmas present",
            "scale" : [
                100.00000762939453,
                100.00000762939453,
                100
            ],
            "translation" : [
                0,
                4.087202072143555,
                0
            ]
        },
        {
            "children" : [
                1
            ],
            "name" : "RootNode"
        },
        {
            "children" : [
                2
            ],
            "name" : "72c377be9d244aa3abdf0257fd61512a.fbx",
            "rotation" : [
                0.70710688829422,
                0,
                0,
                0.7071066498756409
            ]
        },
        {
            "children" : [
                3
            ],
            "name" : "Sketchfab_model",
            "rotation" : [
                -0.70710688829422,
                0,
                0,
                0.7071066498756409
            ],
            "scale" : [
                0.05099547654390335,
                0.05250292643904686,
                0.03643570467829704
            ]
        }
    ],
    "materials" : [
        {
            "doubleSided" : true,
            "name" : "Present",
            "normalTexture" : {
                "index" : 0
            },
            "occlusionTexture" : {
                "index" : 1
            },
            "pbrMetallicRoughness" : {
                "baseColorTexture" : {
                    "index" : 2
                },
                "metallicRoughnessTexture" : {
                    "index" : 1
                },
                "roughnessFactor" : 0.17605827748775482
            }
        }
    ],
    "meshes" : [
        {
            "name" : "christmas present_Present_0",
            "primitives" : [
                {
                    "attributes" : {
                        "POSITION" : 0,
                        "TEXCOORD_0" : 1,
                        "NORMAL" : 2
                    },
                    "indices" : 3,
                    "material" : 0
                }
            ]
        }
    ],
    "textures" : [
        {
            "sampler" : 0,
            "source" : 0
        },
        {
            "sampler" : 0,
            "source" : 1
        },
        {
            "sampler" : 0,
            "source" : 2
        }
    ],
    "images" : [
        {
            "bufferView" : 4,
            "mimeType" : "image/png",
            "name" : "Present_normal"
        },
        {
            "bufferView" : 5,
            "mimeType" : "image/png",
            "name" : "Present_metallicRoughness"
        },
        {
            "bufferView" : 6,
            "mimeType" : "image/png",
            "name" : "Present_baseColor"
        }
    ],
    "accessors" : [
        {
            "bufferView" : 0,
            "componentType" : 5126,
            "count" : 1731,
            "max" : [
                0.2019338458776474,
                0.26688045263290405,
                0.20143860578536987
            ],
            "min" : [
                -0.2019338458776474,
                -0.24596025049686432,
                -0.20143859088420868
            ],
            "type" : "VEC3"
        },
        {
            "bufferView" : 1,
            "componentType" : 5126,
            "count" : 1731,
            "type" : "VEC2"
        },
        {
            "bufferView" : 2,
            "componentType" : 5126,
            "count" : 1731,
            "type" : "VEC3"
        },
        {
            "bufferView" : 3,
            "componentType" : 5123,
            "count" : 2964,
            "type" : "SCALAR"
        }
    ],
    "bufferViews" : [
        {
            "buffer" : 0,
            "byteLength" : 20772,
            "byteOffset" : 0,
            "target" : 34962
        },
        {
            "buffer" : 0,
            "byteLength" : 13848,
            "byteOffset" : 20772,
            "target" : 34962
        },
        {
            "buffer" : 0,
            "byteLength" : 20772,
            "byteOffset" : 34620,
            "target" : 34962
        },
        {
            "buffer" : 0,
            "byteLength" : 5928,
            "byteOffset" : 55392,
            "target" : 34963
        },
        {
            "buffer" : 0,
            "byteLength" : 377488,
            "byteOffset" : 61320
        },
        {
            "buffer" : 0,
            "byteLength" : 174428,
            "byteOffset" : 438808
        },
        {
            "buffer" : 0,
            "byteLength" : 1000627,
            "byteOffset" : 613236
        }
    ],
    "samplers" : [
        {
            "magFilter" : 9729,
            "minFilter" : 9987
        }
    ],
    "buffers" : [
        {
            "byteLength" : 1613864,
            "uri" : "data:application/octet-stream;base64,"
        }
    ]
}
