{
    "asset" : {
        "generator" : "Khronos glTF Blender I/O v3.4.50",
        "version" : "2.0"
    },
    "scene" : 0,
    "scenes" : [
        {
            "name" : "Scene",
            "nodes" : [
                21
            ]
        }
    ],
    "nodes" : [
        {
            "mesh" : 0,
            "name" : "Flower_10_GEO_Flower_01_MAT_0"
        },
        {
            "mesh" : 1,
            "name" : "Flower_10_GEO_Red_Flower_MAT_0"
        },
        {
            "mesh" : 2,
            "name" : "Flower_10_GEO_Stem_MAT_0"
        },
        {
            "children" : [
                0,
                1,
                2
            ],
            "name" : "Flower_10_GEO"
        },
        {
            "mesh" : 3,
            "name" : "Leaf_17_GEO_Leaf_MAT_0"
        },
        {
            "children" : [
                4
            ],
            "name" : "Leaf_17_GEO"
        },
        {
            "mesh" : 4,
            "name" : "Leaf_20_GEO_Leaf_MAT_0"
        },
        {
            "children" : [
                6
            ],
            "name" : "Leaf_20_GEO"
        },
        {
            "mesh" : 5,
            "name" : "Leaf_5_GEO_Leaf_MAT_0"
        },
        {
            "children" : [
                8
            ],
            "name" : "Leaf_5_GEO"
        },
        {
            "mesh" : 6,
            "name" : "Leaf_6_GEO_Leaf_MAT_0"
        },
        {
            "children" : [
                10
            ],
            "name" : "Leaf_6_GEO"
        },
        {
            "mesh" : 7,
            "name" : "polySurface1_Flower_01_MAT_0"
        },
        {
            "children" : [
                12
            ],
            "name" : "polySurface1"
        },
        {
            "mesh" : 8,
            "name" : "polySurface3_Red_Flower_MAT_0"
        },
        {
            "children" : [
                14
            ],
            "name" : "polySurface3"
        },
        {
            "mesh" : 9,
            "name" : "polySurface4_Stem_MAT_0"
        },
        {
            "children" : [
                16
            ],
            "name" : "polySurface4"
        },
        {
            "children" : [
                3,
                5,
                7,
                9,
                11,
                13,
                15,
                17
            ],
            "name" : "Flower_GEO_Group",
            "scale" : [
                0.03280840441584587,
                0.03280840441584587,
                0.03280840069055557
            ]
        },
        {
            "children" : [
                18
            ],
            "name" : "RootNode"
        },
        {
            "children" : [
                19
            ],
            "name" : "b642387c9c7540aaa7abdc0ceef06b16.fbx",
            "rotation" : [
                0.70710688829422,
                0,
                0,
                0.7071066498756409
            ],
            "scale" : [
                0.30480000376701355,
                0.3048000633716583,
                0.30480003356933594
            ]
        },
        {
            "children" : [
                20
            ],
            "name" : "Sketchfab_model",
            "rotation" : [
                -0.70710688829422,
                0,
                0,
                0.7071066498756409
            ],
            "scale" : [
                1.2171465158462524,
                3.9262027740478516,
                3.955641746520996
            ]
        }
    ],
    "materials" : [
        {
            "doubleSided" : true,
            "name" : "Flower_01_MAT",
            "pbrMetallicRoughness" : {}
        },
        {
            "doubleSided" : true,
            "name" : "Red_Flower_MAT",
            "pbrMetallicRoughness" : {}
        },
        {
            "doubleSided" : true,
            "name" : "Stem_MAT",
            "pbrMetallicRoughness" : {}
        },
        {
            "doubleSided" : true,
            "name" : "Leaf_MAT",
            "pbrMetallicRoughness" : {}
        }
    ],
    "meshes" : [
        {
            "name" : "Flower_10_GEO_Flower_01_MAT_0",
            "primitives" : [
                {
                    "attributes" : {
                        "POSITION" : 0,
                        "TEXCOORD_0" : 1,
                        "NORMAL" : 2
                    },
                    "indices" : 3,
                    "material" : 0
                }
            ]
        },
        {
            "name" : "Flower_10_GEO_Red_Flower_MAT_0",
            "primitives" : [
                {
                    "attributes" : {
                        "POSITION" : 4,
                        "TEXCOORD_0" : 5,
                        "NORMAL" : 6
                    },
                    "indices" : 7,
                    "material" : 1
                }
            ]
        },
        {
            "name" : "Flower_10_GEO_Stem_MAT_0",
            "primitives" : [
                {
                    "attributes" : {
                        "POSITION" : 8,
                        "TEXCOORD_0" : 9,
                        "NORMAL" : 10
                    },
                    "indices" : 11,
                    "material" : 2
                }
            ]
        },
        {
            "name" : "Leaf_17_GEO_Leaf_MAT_0",
            "primitives" : [
                {
                    "attributes" : {
                        "POSITION" : 12,
                        "TEXCOORD_0" : 13,
                        "NORMAL" : 14
                    },
                    "indices" : 15,
                    "material" : 3
                }
            ]
        },
        {
            "name" : "Leaf_20_GEO_Leaf_MAT_0",
            "primitives" : [
                {
                    "attributes" : {
                        "POSITION" : 16,
                        "TEXCOORD_0" : 17,
                        "NORMAL" : 18
                    },
                    "indices" : 15,
                    "material" : 3
                }
            ]
        },
        {
            "name" : "Leaf_5_GEO_Leaf_MAT_0",
            "primitives" : [
                {
                    "attributes" : {
                        "POSITION" : 19,
                        "TEXCOORD_0" : 20,
                        "NORMAL" : 21
                    },
                    "indices" : 22,
                    "material" : 3
                }
            ]
        },
        {
            "name" : "Leaf_6_GEO_Leaf_MAT_0",
            "primitives" : [
                {
                    "attributes" : {
                        "POSITION" : 23,
                        "TEXCOORD_0" : 24,
                        "NORMAL" : 25
                    },
                    "indices" : 22,
                    "material" : 3
                }
            ]
        },
        {
            "name" : "polySurface1_Flower_01_MAT_0",
            "primitives" : [
                {
                    "attributes" : {
                        "POSITION" : 26,
                        "TEXCOORD_0" : 27,
                        "NORMAL" : 28
                    },
                    "indices" : 29,
                    "material" : 0
                }
            ]
        },
        {
            "name" : "polySurface3_Red_Flower_MAT_0",
            "primitives" : [
                {
                    "attributes" : {
                        "POSITION" : 30,
                        "TEXCOORD_0" : 31,
                        "NORMAL" : 32
                    },
                    "indices" : 33,
                    "material" : 1
                }
            ]
        },
        {
            "name" : "polySurface4_Stem_MAT_0",
            "primitives" : [
                {
                    "attributes" : {
                        "POSITION" : 34,
                        "TEXCOORD_0" : 35,
                        "NORMAL" : 36
                    },
                    "indices" : 37,
                    "material" : 2
                }
            ]
        }
    ],
    "accessors" : [
        {
            "bufferView" : 0,
            "componentType" : 5126,
            "count" : 122,
            "max" : [
                6.091552734375,
                40.44740295410156,
                -4.645331382751465
            ],
            "min" : [
                4.046876907348633,
                34.55390930175781,
                -5.392599105834961
            ],
            "type" : "VEC3"
        },
        {
            "bufferView" : 1,
            "componentType" : 5126,
            "count" : 122,
            "type" : "VEC2"
        },
        {
            "bufferView" : 2,
            "componentType" : 5126,
            "count" : 122,
            "type" : "VEC3"
        },
        {
            "bufferView" : 3,
            "componentType" : 5123,
            "count" : 168,
            "type" : "SCALAR"
        },
        {
            "bufferView" : 4,
            "componentType" : 5126,
            "count" : 1058,
            "max" : [
                8.467147827148438,
                40.694183349609375,
                -1.0181427001953125
            ],
            "min" : [
                -0.22444438934326172,
                29.81439208984375,
                -9.298307418823242
            ],
            "type" : "VEC3"
        },
        {
            "bufferView" : 5,
            "componentType" : 5126,
            "count" : 1058,
            "type" : "VEC2"
        },
        {
            "bufferView" : 6,
            "componentType" : 5126,
            "count" : 1058,
            "type" : "VEC3"
        },
        {
            "bufferView" : 7,
            "componentType" : 5123,
            "count" : 1572,
            "type" : "SCALAR"
        },
        {
            "bufferView" : 8,
            "componentType" : 5126,
            "count" : 228,
            "max" : [
                4.517063140869141,
                34.62544250488281,
                -1.8510417938232422
            ],
            "min" : [
                0.6741347312927246,
                -1.2732398317893967e-06,
                -5.096884250640869
            ],
            "type" : "VEC3"
        },
        {
            "bufferView" : 9,
            "componentType" : 5126,
            "count" : 228,
            "type" : "VEC2"
        },
        {
            "bufferView" : 10,
            "componentType" : 5126,
            "count" : 228,
            "type" : "VEC3"
        },
        {
            "bufferView" : 11,
            "componentType" : 5123,
            "count" : 468,
            "type" : "SCALAR"
        },
        {
            "bufferView" : 12,
            "componentType" : 5126,
            "count" : 119,
            "max" : [
                14.189697265625,
                31.717267990112305,
                -2.2855072021484375
            ],
            "min" : [
                2.447601318359375,
                24.914039611816406,
                -11.973876953125
            ],
            "type" : "VEC3"
        },
        {
            "bufferView" : 13,
            "componentType" : 5126,
            "count" : 119,
            "type" : "VEC2"
        },
        {
            "bufferView" : 14,
            "componentType" : 5126,
            "count" : 119,
            "type" : "VEC3"
        },
        {
            "bufferView" : 15,
            "componentType" : 5123,
            "count" : 438,
            "type" : "SCALAR"
        },
        {
            "bufferView" : 16,
            "componentType" : 5126,
            "count" : 119,
            "max" : [
                14.428131103515625,
                33.6136589050293,
                8.938751220703125
            ],
            "min" : [
                0.632049560546875,
                14.958381652832031,
                -5.8232879638671875
            ],
            "type" : "VEC3"
        },
        {
            "bufferView" : 17,
            "componentType" : 5126,
            "count" : 119,
            "type" : "VEC2"
        },
        {
            "bufferView" : 18,
            "componentType" : 5126,
            "count" : 119,
            "type" : "VEC3"
        },
        {
            "bufferView" : 19,
            "componentType" : 5126,
            "count" : 119,
            "max" : [
                1.4231188297271729,
                16.79518699645996,
                -1.9917731285095215
            ],
            "min" : [
                -4.373931884765625,
                11.202323913574219,
                -11.59928035736084
            ],
            "type" : "VEC3"
        },
        {
            "bufferView" : 20,
            "componentType" : 5126,
            "count" : 119,
            "type" : "VEC2"
        },
        {
            "bufferView" : 21,
            "componentType" : 5126,
            "count" : 119,
            "type" : "VEC3"
        },
        {
            "bufferView" : 22,
            "componentType" : 5123,
            "count" : 438,
            "type" : "SCALAR"
        },
        {
            "bufferView" : 23,
            "componentType" : 5126,
            "count" : 119,
            "max" : [
                1.8465535640716553,
                9.634971618652344,
                1.9143105745315552
            ],
            "min" : [
                -7.5845818519592285,
                3.7209396362304688,
                -4.593410015106201
            ],
            "type" : "VEC3"
        },
        {
            "bufferView" : 24,
            "componentType" : 5126,
            "count" : 119,
            "type" : "VEC2"
        },
        {
            "bufferView" : 25,
            "componentType" : 5126,
            "count" : 119,
            "type" : "VEC3"
        },
        {
            "bufferView" : 26,
            "componentType" : 5126,
            "count" : 204,
            "max" : [
                -2.5404984951019287,
                34.92331314086914,
                -4.757232666015625
            ],
            "min" : [
                -3.260248899459839,
                28.382171630859375,
                -5.269932270050049
            ],
            "type" : "VEC3"
        },
        {
            "bufferView" : 27,
            "componentType" : 5126,
            "count" : 204,
            "type" : "VEC2"
        },
        {
            "bufferView" : 28,
            "componentType" : 5126,
            "count" : 204,
            "type" : "VEC3"
        },
        {
            "bufferView" : 29,
            "componentType" : 5123,
            "count" : 216,
            "type" : "SCALAR"
        },
        {
            "bufferView" : 30,
            "componentType" : 5126,
            "count" : 665,
            "max" : [
                -2.307837724685669,
                37.8776969909668,
                -3.988663673400879
            ],
            "min" : [
                -3.583528995513916,
                28.559720993041992,
                -5.6837053298950195
            ],
            "type" : "VEC3"
        },
        {
            "bufferView" : 31,
            "componentType" : 5126,
            "count" : 665,
            "type" : "VEC2"
        },
        {
            "bufferView" : 32,
            "componentType" : 5126,
            "count" : 665,
            "type" : "VEC3"
        },
        {
            "bufferView" : 33,
            "componentType" : 5123,
            "count" : 1047,
            "type" : "SCALAR"
        },
        {
            "bufferView" : 34,
            "componentType" : 5126,
            "count" : 168,
            "max" : [
                2.291217565536499,
                28.58704376220703,
                -2.259854555130005
            ],
            "min" : [
                -2.848278284072876,
                -0.42030656337738037,
                -5.195619583129883
            ],
            "type" : "VEC3"
        },
        {
            "bufferView" : 35,
            "componentType" : 5126,
            "count" : 168,
            "type" : "VEC2"
        },
        {
            "bufferView" : 36,
            "componentType" : 5126,
            "count" : 168,
            "type" : "VEC3"
        },
        {
            "bufferView" : 37,
            "componentType" : 5123,
            "count" : 360,
            "type" : "SCALAR"
        }
    ],
    "bufferViews" : [
        {
            "buffer" : 0,
            "byteLength" : 1464,
            "byteOffset" : 0,
            "target" : 34962
        },
        {
            "buffer" : 0,
            "byteLength" : 976,
            "byteOffset" : 1464,
            "target" : 34962
        },
        {
            "buffer" : 0,
            "byteLength" : 1464,
            "byteOffset" : 2440,
            "target" : 34962
        },
        {
            "buffer" : 0,
            "byteLength" : 336,
            "byteOffset" : 3904,
            "target" : 34963
        },
        {
            "buffer" : 0,
            "byteLength" : 12696,
            "byteOffset" : 4240,
            "target" : 34962
        },
        {
            "buffer" : 0,
            "byteLength" : 8464,
            "byteOffset" : 16936,
            "target" : 34962
        },
        {
            "buffer" : 0,
            "byteLength" : 12696,
            "byteOffset" : 25400,
            "target" : 34962
        },
        {
            "buffer" : 0,
            "byteLength" : 3144,
            "byteOffset" : 38096,
            "target" : 34963
        },
        {
            "buffer" : 0,
            "byteLength" : 2736,
            "byteOffset" : 41240,
            "target" : 34962
        },
        {
            "buffer" : 0,
            "byteLength" : 1824,
            "byteOffset" : 43976,
            "target" : 34962
        },
        {
            "buffer" : 0,
            "byteLength" : 2736,
            "byteOffset" : 45800,
            "target" : 34962
        },
        {
            "buffer" : 0,
            "byteLength" : 936,
            "byteOffset" : 48536,
            "target" : 34963
        },
        {
            "buffer" : 0,
            "byteLength" : 1428,
            "byteOffset" : 49472,
            "target" : 34962
        },
        {
            "buffer" : 0,
            "byteLength" : 952,
            "byteOffset" : 50900,
            "target" : 34962
        },
        {
            "buffer" : 0,
            "byteLength" : 1428,
            "byteOffset" : 51852,
            "target" : 34962
        },
        {
            "buffer" : 0,
            "byteLength" : 876,
            "byteOffset" : 53280,
            "target" : 34963
        },
        {
            "buffer" : 0,
            "byteLength" : 1428,
            "byteOffset" : 54156,
            "target" : 34962
        },
        {
            "buffer" : 0,
            "byteLength" : 952,
            "byteOffset" : 55584,
            "target" : 34962
        },
        {
            "buffer" : 0,
            "byteLength" : 1428,
            "byteOffset" : 56536,
            "target" : 34962
        },
        {
            "buffer" : 0,
            "byteLength" : 1428,
            "byteOffset" : 57964,
            "target" : 34962
        },
        {
            "buffer" : 0,
            "byteLength" : 952,
            "byteOffset" : 59392,
            "target" : 34962
        },
        {
            "buffer" : 0,
            "byteLength" : 1428,
            "byteOffset" : 60344,
            "target" : 34962
        },
        {
            "buffer" : 0,
            "byteLength" : 876,
            "byteOffset" : 61772,
            "target" : 34963
        },
        {
            "buffer" : 0,
            "byteLength" : 1428,
            "byteOffset" : 62648,
            "target" : 34962
        },
        {
            "buffer" : 0,
            "byteLength" : 952,
            "byteOffset" : 64076,
            "target" : 34962
        },
        {
            "buffer" : 0,
            "byteLength" : 1428,
            "byteOffset" : 65028,
            "target" : 34962
        },
        {
            "buffer" : 0,
            "byteLength" : 2448,
            "byteOffset" : 66456,
            "target" : 34962
        },
        {
            "buffer" : 0,
            "byteLength" : 1632,
            "byteOffset" : 68904,
            "target" : 34962
        },
        {
            "buffer" : 0,
            "byteLength" : 2448,
            "byteOffset" : 70536,
            "target" : 34962
        },
        {
            "buffer" : 0,
            "byteLength" : 432,
            "byteOffset" : 72984,
            "target" : 34963
        },
        {
            "buffer" : 0,
            "byteLength" : 7980,
            "byteOffset" : 73416,
            "target" : 34962
        },
        {
            "buffer" : 0,
            "byteLength" : 5320,
            "byteOffset" : 81396,
            "target" : 34962
        },
        {
            "buffer" : 0,
            "byteLength" : 7980,
            "byteOffset" : 86716,
            "target" : 34962
        },
        {
            "buffer" : 0,
            "byteLength" : 2094,
            "byteOffset" : 94696,
            "target" : 34963
        },
        {
            "buffer" : 0,
            "byteLength" : 2016,
            "byteOffset" : 96792,
            "target" : 34962
        },
        {
            "buffer" : 0,
            "byteLength" : 1344,
            "byteOffset" : 98808,
            "target" : 34962
        },
        {
            "buffer" : 0,
            "byteLength" : 2016,
            "byteOffset" : 100152,
            "target" : 34962
        },
        {
            "buffer" : 0,
            "byteLength" : 720,
            "byteOffset" : 102168,
            "target" : 34963
        }
    ],
    "buffers" : [
        {
            "byteLength" : 102888,
            "uri" : "data:application/octet-stream;base64,"
        }
    ]
}
