{
    "asset" : {
        "generator" : "Khronos glTF Blender I/O v3.4.50",
        "version" : "2.0"
    },
    "scene" : 0,
    "scenes" : [
        {
            "name" : "Scene",
            "nodes" : [
                7
            ]
        }
    ],
    "nodes" : [
        {
            "mesh" : 0,
            "name" : "Object_11",
            "rotation" : [
                0.004161268938332796,
                0.014732603915035725,
                0.008745693601667881,
                0.9998445510864258
            ],
            "scale" : [
                1.0289113521575928,
                1.002726435661316,
                1.0001176595687866
            ],
            "translation" : [
                10.032048225402832,
                -3.979952096939087,
                3.1346497535705566
            ]
        },
        {
            "mesh" : 1,
            "name" : "Object_14",
            "rotation" : [
                0.0023012878373265266,
                0.008786682039499283,
                0.0074523133225739,
                0.9999309778213501
            ],
            "scale" : [
                1.0289090871810913,
                1.0026757717132568,
                1.0001710653305054
            ],
            "translation" : [
                10.032048225402832,
                -3.9799516201019287,
                3.1346487998962402
            ]
        },
        {
            "name" : "Object_16",
            "rotation" : [
                -0.004319028463214636,
                -0.012377124279737473,
                0.002846913877874613,
                0.9999100565910339
            ],
            "scale" : [
                1.0288257598876953,
                1.0024921894073486,
                1.0004407167434692
            ],
            "translation" : [
                3.42997670173645,
                -2.0026817321777344,
                3.354522466659546
            ]
        },
        {
            "name" : "Object_2",
            "rotation" : [
                -0.004306863993406296,
                -0.01126374863088131,
                -0.0030070021748542786,
                0.9999227523803711
            ],
            "scale" : [
                1.0288256406784058,
                1.0024921894073486,
                1.0004407167434692
            ],
            "translation" : [
                3.451399803161621,
                -1.9835762977600098,
                3.358342170715332
            ]
        },
        {
            "name" : "Object_3"
        },
        {
            "name" : "Object_9",
            "rotation" : [
                -0.004319028463214636,
                -0.012377124279737473,
                0.002846913877874613,
                0.9999100565910339
            ],
            "scale" : [
                1.0288257598876953,
                1.0024921894073486,
                1.0004407167434692
            ],
            "translation" : [
                3.42997670173645,
                -2.0026817321777344,
                3.354522466659546
            ]
        },
        {
            "children" : [
                0,
                1,
                2,
                3,
                4,
                5
            ],
            "name" : "air balloons.obj.cleaner.materialmerger.gles"
        },
        {
            "children" : [
                6
            ],
            "name" : "Sketchfab_model",
            "rotation" : [
                -0.4656296372413635,
                0.5118687152862549,
                0.621877908706665,
                0.3666706681251526
            ],
            "translation" : [
                2.288863182067871,
                -0.5766270160675049,
                3.6714234352111816
            ]
        }
    ],
    "materials" : [
        {
            "alphaMode" : "BLEND",
            "doubleSided" : true,
            "name" : "gold",
            "pbrMetallicRoughness" : {
                "baseColorFactor" : [
                    1,
                    0.4052799940109253,
                    0.029621999710798264,
                    0.8999999761581421
                ],
                "metallicFactor" : 0.9380567073822021,
                "roughnessFactor" : 0.20000000298023224
            }
        },
        {
            "alphaMode" : "BLEND",
            "doubleSided" : true,
            "name" : "silver",
            "pbrMetallicRoughness" : {
                "baseColorFactor" : [
                    0.2173895388841629,
                    0.26070457696914673,
                    0.2813980281352997,
                    0.8999999761581421
                ],
                "metallicFactor" : 0.9076558351516724,
                "roughnessFactor" : 0.20000000298023224
            }
        }
    ],
    "meshes" : [
        {
            "name" : "Object_9",
            "primitives" : [
                {
                    "attributes" : {
                        "POSITION" : 0,
                        "TEXCOORD_0" : 1,
                        "NORMAL" : 2
                    },
                    "indices" : 3,
                    "material" : 0
                }
            ]
        },
        {
            "name" : "Object_12",
            "primitives" : [
                {
                    "attributes" : {
                        "POSITION" : 4,
                        "TEXCOORD_0" : 5,
                        "NORMAL" : 6
                    },
                    "indices" : 7,
                    "material" : 1
                }
            ]
        }
    ],
    "accessors" : [
        {
            "bufferView" : 0,
            "componentType" : 5126,
            "count" : 3223,
            "max" : [
                -0.9924579858779907,
                6.357947826385498,
                2.2939560413360596
            ],
            "min" : [
                -9.204336166381836,
                5.5745768547058105,
                0.9899340271949768
            ],
            "type" : "VEC3"
        },
        {
            "bufferView" : 1,
            "componentType" : 5126,
            "count" : 3223,
            "type" : "VEC2"
        },
        {
            "bufferView" : 2,
            "componentType" : 5126,
            "count" : 3223,
            "type" : "VEC3"
        },
        {
            "bufferView" : 3,
            "componentType" : 5123,
            "count" : 15936,
            "type" : "SCALAR"
        },
        {
            "bufferView" : 4,
            "componentType" : 5126,
            "count" : 1980,
            "max" : [
                -2.3152389526367188,
                6.458347797393799,
                2.402672052383423
            ],
            "min" : [
                -7.725122928619385,
                5.47417688369751,
                1.1259839534759521
            ],
            "type" : "VEC3"
        },
        {
            "bufferView" : 5,
            "componentType" : 5126,
            "count" : 1980,
            "type" : "VEC2"
        },
        {
            "bufferView" : 6,
            "componentType" : 5126,
            "count" : 1980,
            "type" : "VEC3"
        },
        {
            "bufferView" : 7,
            "componentType" : 5123,
            "count" : 10464,
            "type" : "SCALAR"
        }
    ],
    "bufferViews" : [
        {
            "buffer" : 0,
            "byteLength" : 38676,
            "byteOffset" : 0,
            "target" : 34962
        },
        {
            "buffer" : 0,
            "byteLength" : 25784,
            "byteOffset" : 38676,
            "target" : 34962
        },
        {
            "buffer" : 0,
            "byteLength" : 38676,
            "byteOffset" : 64460,
            "target" : 34962
        },
        {
            "buffer" : 0,
            "byteLength" : 31872,
            "byteOffset" : 103136,
            "target" : 34963
        },
        {
            "buffer" : 0,
            "byteLength" : 23760,
            "byteOffset" : 135008,
            "target" : 34962
        },
        {
            "buffer" : 0,
            "byteLength" : 15840,
            "byteOffset" : 158768,
            "target" : 34962
        },
        {
            "buffer" : 0,
            "byteLength" : 23760,
            "byteOffset" : 174608,
            "target" : 34962
        },
        {
            "buffer" : 0,
            "byteLength" : 20928,
            "byteOffset" : 198368,
            "target" : 34963
        }
    ],
    "buffers" : [
        {
            "byteLength" : 219296,
            "uri" : "data:application/octet-stream;base64,"
        }
    ]
}
